.
..............................Site Info...........................

 -   http://www.scenetime.com  *_*    

Scenetime .Always on time . friendly online private torrent community ..

     We care to share . Join us on  http://www.scenetime.com 

    Be the first to get new release at  http://www.scenetime.com

        Seed back for speed


...................................NFO:.................................................__________                   __        __      __   
______   _______  ____    |__| ____ |  | ___/  |_ 
 |     ___/_  __ /  _    |  |/ __ |  |/ /   __
 |    |     |  | (  <_> )  |    ___/|    <  |  |  
 |____|     |__|   ____/__|  |___  >__|_  |__|  
                        ______|    /     /       

Projekt-RG

Filename-The.Five-Year.Engagement.2012.BRrip.Xvid.Ac3.Projekt
Source-The.Five-Year.Engagement.2012.UNRATED.720p.BluRay.X264-AMIABLE
 
http://www.imdb.com/title/tt1195478/

Info
Format                                   : AVI
Format/Info                              : Audio Video Interleave
File size                                : 1.68 GiB
Duration                                 : 2h 11mn
Overall bit rate                         : 1 828 Kbps
Writing library                          : VirtualDub build 32842/release

Video
ID                                       : 0
Format                                   : MPEG-4 Visual
Format profile                           : Advanced Simple@L5
Format settings, BVOP                    : 2
Format settings, QPel                    : No
Format settings, GMC                     : No warppoints
Format settings, Matrix                  : Default (H.263)
Muxing mode                              : Packed bitstream
Codec ID                                 : XVID
Codec ID/Hint                            : XviD
Duration                                 : 2h 11mn
Bit rate                                 : 1 498 Kbps
Width                                    : 720 pixels
Height                                   : 304 pixels
Display aspect ratio                     : 2.35:1
Frame rate                               : 23.976 fps
Color space                              : YUV
Chroma subsampling                       : 4:2:0
Bit depth                                : 8 bits
Scan type                                : Progressive
Compression mode                         : Lossy
Bits/(Pixel*Frame)                       : 0.286
Stream size                              : 1.37 GiB (82%)
Writing library                          : XviD 64

Audio
ID                                       : 1
Format                                   : AC-3
Format/Info                              : Audio Coding 3
Mode extension                           : CM (complete main)
Format settings, Endianness              : Big
Codec ID                                 : 2000
Duration                                 : 2h 11mn
Bit rate mode                            : Constant
Bit rate                                 : 320 Kbps
Channel(s)                               : 6 channels
Channel positions                        : Front: L C R, Side: L R, LFE
Sampling rate                            : 48.0 KHz
Bit depth                                : 16 bits
Compression mode                         : Lossy
Stream size                              : 301 MiB (18%)
Alignment                                : Aligned on interleaves
Interleave, duration                     : 42 ms (1.00 video frame)
Interleave, preload duration             : 512 ms